<?xml version="1.0" encoding="UTF-8"?>
<!DOCTYPE svg PUBLIC "-//W3C//DTD SVG 1.1//EN" "http://www.w3.org/Graphics/SVG/1.1/DTD/svg11.dtd">
<!-- Creator: CorelDRAW X5 -->
<svg xmlns="http://www.w3.org/2000/svg" xml:space="preserve" width="120mm" height="41.9226mm" style="shape-rendering:geometricPrecision; text-rendering:geometricPrecision; image-rendering:optimizeQuality; fill-rule:evenodd; clip-rule:evenodd"
viewBox="0 0 12000 4192"
 xmlns:xlink="http://www.w3.org/1999/xlink">
 <defs>
  <style type="text/css">
   <![CDATA[
    .fil16 {fill:none}
    .fil15 {fill:none;fill-rule:nonzero}
    .fil30 {fill:#00A0E3}
    .fil17 {fill:#FFE54A;fill-rule:nonzero}
    .fil29 {fill:#0072B5;fill-rule:nonzero}
    .fil28 {fill:#0078BF;fill-rule:nonzero}
    .fil3 {fill:url(#id7)}
    .fil4 {fill:url(#id8)}
    .fil9 {fill:url(#id9)}
    .fil7 {fill:url(#id10)}
    .fil1 {fill:url(#id11)}
    .fil2 {fill:url(#id12)}
    .fil5 {fill:url(#id13)}
    .fil8 {fill:url(#id14)}
    .fil13 {fill:url(#id15)}
    .fil6 {fill:url(#id16)}
    .fil0 {fill:url(#id17)}
    .fil12 {fill:url(#id18)}
    .fil14 {fill:url(#id19)}
    .fil11 {fill:url(#id20)}
    .fil10 {fill:url(#id21);fill-rule:nonzero}
    .fil18 {fill:url(#id22);fill-opacity:0.258824}
    .fil26 {fill:url(#id23);fill-opacity:0.258824}
    .fil20 {fill:url(#id24);fill-opacity:0.419608}
    .fil19 {fill:url(#id25);fill-opacity:0.600000}
    .fil23 {fill:url(#id26);fill-opacity:0.749020}
    .fil27 {fill:url(#id27);fill-opacity:0.749020}
    .fil21 {fill:url(#id28);fill-opacity:0.749020}
    .fil22 {fill:url(#id29);fill-opacity:0.749020}
    .fil25 {fill:url(#id30)}
    .fil24 {fill:url(#id31)}
   ]]>
  </style>
     <clipPath id="id0" style="clip-rule:nonzero">
      <path d="M4374 4190c-92,4 -185,0 -277,0l-3364 0c-125,0 -251,4 -376,0 -281,-9 -443,-287 -310,-536 178,-333 378,-656 567,-982 478,-828 956,-1657 1435,-2485 0,-1 1,-2 1,-3 2,-3 4,-6 5,-9 3,-4 5,-8 8,-12 100,-143 280,-207 445,-130 128,60 186,195 253,310 107,185 213,369 320,554 152,263 304,526 456,789 49,-53 96,-107 143,-161 55,-64 73,-94 126,-161 18,-23 37,-47 55,-70l170 12 59 215c-132,161 -245,278 -405,423l0 0 0 0 0 0 0 0 0 0 0 0 0 0 0 0 0 0 0 0 0 0 0 0 0 0 0 0 0 0 0 0 0 0 0 0 0 0 0 0 0 0 0 0 0 0 0 0 0 0 0 0 0 0 0 0 0 0 0 0 0 0 0 0 0 0 0 0 0 0 0 0 0 0 0 0 0 0 0 0 0 0 0 0 0 0 0 0 0 0 0 0 0 0 0 0 0 0 0 0 0 0 0 0 0 0 0 0 0 0 0 0 0 0 0 0 0 0 0 0 0 0 0 0 0 0 0 0 0 0 0 0 0 0 0 0 0 0 0 0 0 0 0 0 0 0 0 0 0 0 0 0 0 0 0 0 0 0 0 0 0 0 0 0 0 0 0 0 0 0 0 0 0 0 0 0 0 0 0 0 0 0 0 0 0 0 0 0 0 0 0 0 0 0 0 0 0 0 0 0 0 0 -2 2 -2 2 -2 2 -2 2 -2 2 -2 2 -2 2 -2 2 -2 2 -2 2 -2 2 -2 2 -2 2 -2 2 0 0 -2 2 -2 2 -2 2 0 0 -2 2 0 0 -2 2 0 0 -2 2 -2 2 0 0 -2 2 0 0 -2 2 0 0 -2 2 -2 2 -2 2 0 0 -2 2 -2 2 -2 2 0 0 -2 2 0 0 -2 2 0 0 -2 2 -2 2 -2 2 0 0 -2 2 -2 2 0 0 -2 2 0 0 -2 2 -2 2 0 0 -2 2 0 0 -2 2 0 0 -2 2 -2 2 0 0 -2 2 -2 2 0 0 -2 2 0 0 -2 2 0 0 -2 2 -2 2 0 0 -2 2 -2 2 0 0 -2 2 0 0 -2 2 0 0 -2 2 -2 2 0 0 -2 2 -2 2 -2 2 0 0 -2 2 0 0 -2 2 -2 2 0 0 -2 2 0 0 -2 2 -2 2c-15,13 -29,25 -44,37 -173,143 -357,278 -543,403 -59,40 -119,79 -178,116 -182,116 -365,222 -544,320 -60,33 -120,65 -179,96 -193,101 -377,190 -543,266 -480,220 -819,338 -819,338 302,-156 573,-302 819,-441 162,-92 312,-181 453,-267 94,-58 183,-114 269,-170 145,-95 279,-187 403,-278 114,-84 220,-166 319,-248 147,-122 279,-242 402,-365 16,-16 31,-31 46,-47l0 0c-187,-325 -375,-649 -563,-974 -91,-157 -182,-314 -272,-472 -19,-34 -38,-69 -59,-102 -73,-113 -221,-131 -300,-10 -11,18 -21,37 -32,55 -505,875 -1010,1749 -1515,2624 -110,190 -219,379 -329,569 -45,79 -99,157 -138,239 -59,127 19,245 155,255 36,3 73,0 109,0l1051 0 0 -557c0,-18 10,-35 27,-43 140,-64 290,-137 448,-218 31,-16 69,7 69,42l0 775 179 0 0 -921c0,-17 9,-33 24,-41 147,-81 297,-168 447,-261 31,-20 72,3 72,40l0 1183 178 0 0 -1360c0,-16 8,-30 21,-39 152,-103 302,-212 446,-327 31,-25 76,-2 76,37l0 1689 179 0 0 -1710 0 0 0 -211 0 0 0 -1 0 0 0 -1 0 0 0 -1 0 0 0 -1 0 0 0 -1 0 0 0 -1 0 0 0 -1 0 0 0 -1 0 0 0 -1 0 0 0 -1 0 0 0 -1 0 0 0 -1 0 0 0 -1 0 0 0 -1 0 0 0 -1 0 0 0 -1 0 0 0 -1 0 0 0 -1 0 0 0 -1 0 0 0 -1 0 0 0 -1 0 -1 0 0 0 -1 0 0 0 -1 0 0 0 -1 0 0 0 -1 0 0 0 -1 0 0 0 -1 0 0 0 -1 0 0 0 -1 0 0 0 -1 0 -1 0 0 0 -1 0 0 0 -1 0 0 0 -1 0 -1 0 -1 0 0 0 -1 0 0 0 -1 1 -2 0 0 0 0 0 0 0 -1 0 0 0 0 0 0 0 0 0 0 0 0 0 0 0 0 0 0 0 0 0 0 0 0 0 0 0 0 0 0 0 0 0 0 0 0 0 0 0 0 0 0 1 -1 0 0 0 0 0 0 0 0 1 -1 0 0 1 -1 0 0 0 0 0 0 0 0 0 0 1 0 0 0 1 0 0 0 1 0 0 0 1 0 0 0 1 0 0 0 1 0 0 0 1 0 0 0 1 0 0 0 1 0 0 0 1 0 0 0 1 0 0 0 1 0 0 0 1 0 0 0 1 0 0 0 1 0 0 0 1 0 0 0 1 0 0 0 1 0 0 0 1 0 1 0 0 0 1 0 0 0 1 0 0 0 1 0 0 0 1 0 1 0 1 0 0 0 1 0 0 0 1 0 1 0 1 0 1 0 0 0 1 0 1 0 1 0 1 0 0 0 1 0 0 0 1 0 0 0 1 0 1 0 0 0 1 0 0 0 1 0 1 -1 0 0 1 0 0 0 1 0 0 0 1 0 0 0 1 0 0 0 1 0 0 0 1 0 0 0 1 0 0 0 1 0 0 0 1 0 0 0 1 0 0 0 1 -1 0 0 1 0 0 0 1 -1 0 0 1 0 0 0 1 -1 0 0 1 0 0 0 1 -1 0 0 1 0 0 0 1 0 0 0 1 0 0 0 1 0 0 0 1 -1 0 0c139,-128 269,-263 385,-404 17,-20 47,-23 67,-6l25 21c11,9 17,22 17,36l0 1207c146,251 291,501 434,754 138,244 19,549 -284,563zm-150 -181c102,4 230,13 290,-74 78,-114 -28,-241 -85,-340 -68,-119 -137,-237 -205,-356l0 770zm-2847 -1840l99 0c22,0 39,18 39,39l0 55c39,9 75,24 108,45l39 -39c12,-12 31,-15 46,-7 -57,50 -107,106 -150,168 -38,-25 -82,-39 -131,-39 -132,0 -239,107 -239,239 0,122 91,222 208,237 -3,29 -4,59 -4,89l0 135 -14 0c-22,0 -39,-18 -39,-39l0 -55c-39,-9 -75,-24 -108,-45l-39 39c-15,15 -40,15 -56,0l-70 -70c-15,-15 -15,-40 0,-56l39 -39c-20,-33 -35,-69 -45,-108l-55 0c-22,0 -39,-18 -39,-39l0 -98c0,-22 18,-39 39,-39l55 0c9,-39 24,-75 45,-108l-39 -39c-15,-15 -15,-40 0,-56l70 -70c15,-15 40,-15 56,0l39 39c33,-20 69,-35 108,-45l0 -55c0,-22 18,-39 39,-39zm1212 -2c70,26 136,61 196,103l-28 21 -18 14 -29 21 -17 13 -30 22 -18 13 -29 21 -17 13 -30 22 -21 15 -29 21 -21 15 -30 21 -24 16 -29 20 -21 14 -30 21 -26 17 -29 19 -27 18 -30 20 -21 14 -32 21 -27 18 -30 19 -33 21 -3 2 -22 14 -1 1 -34 21 -21 13c-15,9 -29,18 -44,27l-15 9 -37 22 -2 1 -23 14 -1 1 -42 26 -2 1 -24 14 -38 23 -20 12 -38 22 -24 14 -6 3 -43 25 0 0 -25 14 -44 26 -17 10c-18,11 -37,21 -55,32l-24 13 -38 22 -26 15 0 -167c0,-368 235,-683 561,-804 80,89 183,143 294,143 112,0 215,-53 295,-143zm-773 -689l17 0c10,-183 123,-338 281,-407l0 150c0,13 11,25 25,25l26 0c14,0 25,-11 25,-25l0 -48 0 -127 0 -7c0,-40 33,-73 73,-73l76 0c40,0 73,33 73,73l0 8 0 125 0 48c0,13 11,25 25,25l26 0c13,0 25,-11 25,-25l0 -147c155,70 265,224 274,404l17 0c33,0 60,27 60,60 0,33 -27,59 -60,59l-961 0c-33,0 -59,-27 -59,-59 0,-33 27,-60 59,-60zm935 202c-42,287 -230,504 -455,504 -225,0 -413,-217 -455,-504l910 0z"/>
     </clipPath>
      <mask id="id1">
  <linearGradient id="id2" gradientUnits="userSpaceOnUse" x1="11026.7" y1="1332.76" x2="11026.7" y2="3166.17">
   <stop offset="0" style="stop-opacity:1; stop-color:white"/>
   <stop offset="1" style="stop-opacity:0; stop-color:white"/>
  </linearGradient>
       <rect style="fill:url(#id2)" x="10108" y="1001" width="1838" height="2498"/>
      </mask>
      <mask id="id3">
  <linearGradient id="id4" gradientUnits="userSpaceOnUse" x1="8542.03" y1="1315.13" x2="8542.03" y2="3184.46">
   <stop offset="0" style="stop-opacity:1; stop-color:white"/>
   <stop offset="1" style="stop-opacity:0; stop-color:white"/>
  </linearGradient>
       <rect style="fill:url(#id4)" x="7360" y="942" width="2363" height="2616"/>
      </mask>
      <mask id="id5">
  <linearGradient id="id6" gradientUnits="userSpaceOnUse" x1="6192.03" y1="1332.76" x2="6192.03" y2="3166.17">
   <stop offset="0" style="stop-opacity:1; stop-color:white"/>
   <stop offset="1" style="stop-opacity:0; stop-color:white"/>
  </linearGradient>
       <rect style="fill:url(#id6)" x="5176" y="1001" width="2032" height="2498"/>
      </mask>
  <linearGradient id="id7" gradientUnits="userSpaceOnUse" x1="8913.21" y1="-3987.02" x2="9736.86" y2="-1135.87">
   <stop offset="0" style="stop-color:#FFF7CD"/>
   <stop offset="0.0117647" style="stop-color:#FFF7CD"/>
   <stop offset="0.988235" style="stop-color:#C7AEA6"/>
   <stop offset="1" style="stop-color:#C7AEA6"/>
  </linearGradient>
  <linearGradient id="id8" gradientUnits="userSpaceOnUse" x1="7926.37" y1="125.62" x2="9684.85" y2="125.62">
   <stop offset="0" style="stop-color:#7F5B52"/>
   <stop offset="1" style="stop-color:#A7877D"/>
  </linearGradient>
  <linearGradient id="id9" gradientUnits="userSpaceOnUse" xlink:href="#id8" x1="9684.85" y1="125.02" x2="11442.8" y2="125.02">
  </linearGradient>
  <linearGradient id="id10" gradientUnits="userSpaceOnUse" x1="9685.52" y1="121.4" x2="11443.3" y2="121.4">
   <stop offset="0" style="stop-color:white"/>
   <stop offset="0.0117647" style="stop-color:white"/>
   <stop offset="1" style="stop-color:#513229"/>
   <stop offset="1" style="stop-color:#513229"/>
  </linearGradient>
  <linearGradient id="id11" gradientUnits="userSpaceOnUse" x1="10045.1" y1="-1122.47" x2="10045.1" y2="-4002.04">
   <stop offset="0" style="stop-color:white"/>
   <stop offset="0.988235" style="stop-color:#C7AEA6"/>
   <stop offset="1" style="stop-color:#C7AEA6"/>
  </linearGradient>
  <linearGradient id="id12" gradientUnits="userSpaceOnUse" xlink:href="#id10" x1="8235.31" y1="-1121.84" x2="8235.31" y2="-2122">
  </linearGradient>
  <linearGradient id="id13" gradientUnits="userSpaceOnUse" xlink:href="#id10" x1="11120.3" y1="-1126.64" x2="11120.3" y2="-2120.26">
  </linearGradient>
  <linearGradient id="id14" gradientUnits="userSpaceOnUse" xlink:href="#id8" x1="9678.03" y1="-1392.15" x2="6793.7" y2="-1392.15">
  </linearGradient>
  <linearGradient id="id15" gradientUnits="userSpaceOnUse" x1="-152.76" y1="1086.63" x2="1619.24" y2="4155.84">
   <stop offset="0" style="stop-color:#00A0E3"/>
   <stop offset="0.431373" style="stop-color:#00A0E3"/>
   <stop offset="1" style="stop-color:#00A0E3"/>
  </linearGradient>
  <linearGradient id="id16" gradientUnits="userSpaceOnUse" xlink:href="#id8" x1="12596" y1="-1911.18" x2="9670.85" y2="-874.399">
  </linearGradient>
  <linearGradient id="id17" gradientUnits="userSpaceOnUse" xlink:href="#id11" x1="9801.69" y1="-876.249" x2="7809.6" y2="1115.85">
  </linearGradient>
  <linearGradient id="id18" gradientUnits="userSpaceOnUse" x1="3056.73" y1="3649.73" x2="2531.88" y2="1690.91">
   <stop offset="0" style="stop-color:#393185"/>
   <stop offset="0.431373" style="stop-color:#1D68B4"/>
   <stop offset="1" style="stop-color:#00A0E3"/>
  </linearGradient>
  <linearGradient id="id19" gradientUnits="userSpaceOnUse" x1="3484.8" y1="3230.51" x2="4538.35" y2="3938.76">
   <stop offset="0" style="stop-color:#00A0E3"/>
   <stop offset="0.368627" style="stop-color:#AE4A84"/>
   <stop offset="1" style="stop-color:#E31E24"/>
  </linearGradient>
  <linearGradient id="id20" gradientUnits="userSpaceOnUse" x1="2915.42" y1="2065.28" x2="2823.66" y2="3334.73">
   <stop offset="0" style="stop-color:#00A0E3"/>
   <stop offset="0.541176" style="stop-color:#1C69B4"/>
   <stop offset="1" style="stop-color:#393185"/>
  </linearGradient>
  <linearGradient id="id21" gradientUnits="userSpaceOnUse" x1="2555.84" y1="2432.32" x2="7904.57" y2="-680.219">
   <stop offset="0" style="stop-color:#0078BF"/>
   <stop offset="0.45098" style="stop-color:#AE4A84"/>
   <stop offset="1" style="stop-color:#E31E24"/>
  </linearGradient>
  <linearGradient id="id22" gradientUnits="userSpaceOnUse" xlink:href="#id10" x1="8328.67" y1="-2329.93" x2="8006.87" y2="1005.49">
  </linearGradient>
  <linearGradient id="id23" gradientUnits="userSpaceOnUse" xlink:href="#id10" x1="7074.79" y1="-2079.61" x2="6796.69" y2="802.789">
  </linearGradient>
  <linearGradient id="id24" gradientUnits="userSpaceOnUse" xlink:href="#id10" x1="12493" y1="514.379" x2="4346.62" y2="-271.58">
  </linearGradient>
  <linearGradient id="id25" gradientUnits="userSpaceOnUse" xlink:href="#id11" x1="7619.31" y1="-6412.48" x2="6844.45" y2="1618.75">
  </linearGradient>
  <linearGradient id="id26" gradientUnits="userSpaceOnUse" xlink:href="#id8" x1="3779.77" y1="1198.33" x2="4207.63" y2="1091.61">
  </linearGradient>
  <linearGradient id="id27" gradientUnits="userSpaceOnUse" xlink:href="#id8" x1="4191.15" y1="1163.93" x2="4584.43" y2="1201.87">
  </linearGradient>
  <linearGradient id="id28" gradientUnits="userSpaceOnUse" xlink:href="#id8" x1="11068" y1="449.329" x2="4345.11" y2="-199.29">
  </linearGradient>
  <linearGradient id="id29" gradientUnits="userSpaceOnUse" xlink:href="#id8" x1="4449.8" y1="980.548" x2="4210.64" y2="957.468">
  </linearGradient>
  <linearGradient id="id30" gradientUnits="userSpaceOnUse" xlink:href="#id7" x1="7727.14" y1="1909.65" x2="6549.12" y2="-4383.46">
  </linearGradient>
  <linearGradient id="id31" gradientUnits="userSpaceOnUse" xlink:href="#id11" x1="4813.25" y1="1862.8" x2="9043.72" y2="-1623.2">
  </linearGradient>
 </defs>
<symbol id="Fm6-23-0" viewBox="7926 -1120 1758 2480">
 <polygon class="fil0" points="9685,-1111 9678,-1120 8469,-723 7926,1360 9685,-1109 "/>
</symbol>
<symbol id="Fm1-18-0" viewBox="9685 -4002 720 2880">
 <polygon class="fil1" points="9698,-1127 10405,-2120 10405,-2120 9685,-4002 9685,-1122 "/>
</symbol>
<symbol id="Fm8-25-0" viewBox="6794 -2122 2883 1000">
 <polygon class="fil2" points="8965,-2122 8965,-2120 6794,-2062 9677,-1122 "/>
</symbol>
<symbol id="Fm7-24-0" viewBox="8965 -4002 720 2881">
 <polygon class="fil3" points="9685,-1122 9685,-4002 8965,-2122 9677,-1122 9680,-1121 "/>
</symbol>
<symbol id="Fm4-21-0" viewBox="7926 -1109 1758 2469">
 <polygon class="fil4" points="9685,220 9685,-1109 7926,1360 7926,1360 "/>
</symbol>
<symbol id="Fm0-17-0" viewBox="9698 -2120 2846 994">
 <polygon class="fil5" points="12543,-2062 10405,-2120 9698,-1127 "/>
</symbol>
<symbol id="Fm5-22-0" viewBox="9691 -2062 2885 1339">
 <polygon class="fil6" points="9691,-1117 10900,-723 12576,-2062 12543,-2062 9698,-1127 "/>
</symbol>
<symbol id="Fm2-19-0" viewBox="9686 -1117 1758 2477">
 <polygon class="fil7" points="9691,-1117 9686,-1110 11443,1360 11443,1360 10900,-723 "/>
</symbol>
<symbol id="Fm9-26-0" viewBox="6794 -2062 2884 1339">
 <polygon class="fil8" points="9677,-1122 6794,-2062 8469,-723 8469,-723 9678,-1120 "/>
</symbol>
<symbol id="Fm3-20-0" viewBox="9685 -1110 1758 2470">
 <polygon class="fil9" points="9685,-1109 9685,220 11443,1360 9686,-1110 "/>
</symbol>
 <g id="Layer_x0020_1">
  <metadata id="CorelCorpID_0Corel-Layer"/>
  <g id="_256615344">
   <g>
    <path class="fil10" d="M4374 4190c-92,4 -185,0 -277,0l-3364 0c-125,0 -251,4 -376,0 -281,-9 -443,-287 -310,-536 178,-333 378,-656 567,-982 478,-828 956,-1657 1435,-2485 0,-1 1,-2 1,-3 2,-3 4,-6 5,-9 3,-4 5,-8 8,-12 100,-143 280,-207 445,-130 128,60 186,195 253,310 107,185 213,369 320,554 152,263 304,526 456,789 49,-53 96,-107 143,-161 55,-64 73,-94 126,-161 18,-23 37,-47 55,-70l170 12 59 215c-132,161 -245,278 -405,423l0 0 0 0 0 0 0 0 0 0 0 0 0 0 0 0 0 0 0 0 0 0 0 0 0 0 0 0 0 0 0 0 0 0 0 0 0 0 0 0 0 0 0 0 0 0 0 0 0 0 0 0 0 0 0 0 0 0 0 0 0 0 0 0 0 0 0 0 0 0 0 0 0 0 0 0 0 0 0 0 0 0 0 0 0 0 0 0 0 0 0 0 0 0 0 0 0 0 0 0 0 0 0 0 0 0 0 0 0 0 0 0 0 0 0 0 0 0 0 0 0 0 0 0 0 0 0 0 0 0 0 0 0 0 0 0 0 0 0 0 0 0 0 0 0 0 0 0 0 0 0 0 0 0 0 0 0 0 0 0 0 0 0 0 0 0 0 0 0 0 0 0 0 0 0 0 0 0 0 0 0 0 0 0 0 0 0 0 0 0 0 0 0 0 0 0 0 0 0 0 0 0 -2 2 -2 2 -2 2 -2 2 -2 2 -2 2 -2 2 -2 2 -2 2 -2 2 -2 2 -2 2 -2 2 -2 2 0 0 -2 2 -2 2 -2 2 0 0 -2 2 0 0 -2 2 0 0 -2 2 -2 2 0 0 -2 2 0 0 -2 2 0 0 -2 2 -2 2 -2 2 0 0 -2 2 -2 2 -2 2 0 0 -2 2 0 0 -2 2 0 0 -2 2 -2 2 -2 2 0 0 -2 2 -2 2 0 0 -2 2 0 0 -2 2 -2 2 0 0 -2 2 0 0 -2 2 0 0 -2 2 -2 2 0 0 -2 2 -2 2 0 0 -2 2 0 0 -2 2 0 0 -2 2 -2 2 0 0 -2 2 -2 2 0 0 -2 2 0 0 -2 2 0 0 -2 2 -2 2 0 0 -2 2 -2 2 -2 2 0 0 -2 2 0 0 -2 2 -2 2 0 0 -2 2 0 0 -2 2 -2 2c-15,13 -29,25 -44,37 -173,143 -357,278 -543,403 -59,40 -119,79 -178,116 -182,116 -365,222 -544,320 -60,33 -120,65 -179,96 -193,101 -377,190 -543,266 -480,220 -819,338 -819,338 302,-156 573,-302 819,-441 162,-92 312,-181 453,-267 94,-58 183,-114 269,-170 145,-95 279,-187 403,-278 114,-84 220,-166 319,-248 147,-122 279,-242 402,-365 16,-16 31,-31 46,-47l0 0c-187,-325 -375,-649 -563,-974 -91,-157 -182,-314 -272,-472 -19,-34 -38,-69 -59,-102 -73,-113 -221,-131 -300,-10 -11,18 -21,37 -32,55 -505,875 -1010,1749 -1515,2624 -110,190 -219,379 -329,569 -45,79 -99,157 -138,239 -59,127 19,245 155,255 36,3 73,0 109,0l1051 0 0 -557c0,-18 10,-35 27,-43 140,-64 290,-137 448,-218 31,-16 69,7 69,42l0 775 179 0 0 -921c0,-17 9,-33 24,-41 147,-81 297,-168 447,-261 31,-20 72,3 72,40l0 1183 178 0 0 -1360c0,-16 8,-30 21,-39 152,-103 302,-212 446,-327 31,-25 76,-2 76,37l0 1689 179 0 0 -1710 0 0 0 -211 0 0 0 -1 0 0 0 -1 0 0 0 -1 0 0 0 -1 0 0 0 -1 0 0 0 -1 0 0 0 -1 0 0 0 -1 0 0 0 -1 0 0 0 -1 0 0 0 -1 0 0 0 -1 0 0 0 -1 0 0 0 -1 0 0 0 -1 0 0 0 -1 0 0 0 -1 0 0 0 -1 0 0 0 -1 0 0 0 -1 0 0 0 -1 0 -1 0 0 0 -1 0 0 0 -1 0 0 0 -1 0 0 0 -1 0 0 0 -1 0 0 0 -1 0 0 0 -1 0 0 0 -1 0 0 0 -1 0 -1 0 0 0 -1 0 0 0 -1 0 0 0 -1 0 -1 0 -1 0 0 0 -1 0 0 0 -1 1 -2 0 0 0 0 0 0 0 -1 0 0 0 0 0 0 0 0 0 0 0 0 0 0 0 0 0 0 0 0 0 0 0 0 0 0 0 0 0 0 0 0 0 0 0 0 0 0 0 0 0 0 1 -1 0 0 0 0 0 0 0 0 1 -1 0 0 1 -1 0 0 0 0 0 0 0 0 0 0 1 0 0 0 1 0 0 0 1 0 0 0 1 0 0 0 1 0 0 0 1 0 0 0 1 0 0 0 1 0 0 0 1 0 0 0 1 0 0 0 1 0 0 0 1 0 0 0 1 0 0 0 1 0 0 0 1 0 0 0 1 0 0 0 1 0 0 0 1 0 0 0 1 0 1 0 0 0 1 0 0 0 1 0 0 0 1 0 0 0 1 0 1 0 1 0 0 0 1 0 0 0 1 0 1 0 1 0 1 0 0 0 1 0 1 0 1 0 1 0 0 0 1 0 0 0 1 0 0 0 1 0 1 0 0 0 1 0 0 0 1 0 1 -1 0 0 1 0 0 0 1 0 0 0 1 0 0 0 1 0 0 0 1 0 0 0 1 0 0 0 1 0 0 0 1 0 0 0 1 0 0 0 1 0 0 0 1 -1 0 0 1 0 0 0 1 -1 0 0 1 0 0 0 1 -1 0 0 1 0 0 0 1 -1 0 0 1 0 0 0 1 0 0 0 1 0 0 0 1 0 0 0 1 -1 0 0c139,-128 269,-263 385,-404 17,-20 47,-23 67,-6l25 21c11,9 17,22 17,36l0 1207c146,251 291,501 434,754 138,244 19,549 -284,563zm-150 -181c102,4 230,13 290,-74 78,-114 -28,-241 -85,-340 -68,-119 -137,-237 -205,-356l0 770zm-2847 -1840l99 0c22,0 39,18 39,39l0 55c39,9 75,24 108,45l39 -39c12,-12 31,-15 46,-7 -57,50 -107,106 -150,168 -38,-25 -82,-39 -131,-39 -132,0 -239,107 -239,239 0,122 91,222 208,237 -3,29 -4,59 -4,89l0 135 -14 0c-22,0 -39,-18 -39,-39l0 -55c-39,-9 -75,-24 -108,-45l-39 39c-15,15 -40,15 -56,0l-70 -70c-15,-15 -15,-40 0,-56l39 -39c-20,-33 -35,-69 -45,-108l-55 0c-22,0 -39,-18 -39,-39l0 -98c0,-22 18,-39 39,-39l55 0c9,-39 24,-75 45,-108l-39 -39c-15,-15 -15,-40 0,-56l70 -70c15,-15 40,-15 56,0l39 39c33,-20 69,-35 108,-45l0 -55c0,-22 18,-39 39,-39zm1212 -2c70,26 136,61 196,103l-28 21 -18 14 -29 21 -17 13 -30 22 -18 13 -29 21 -17 13 -30 22 -21 15 -29 21 -21 15 -30 21 -24 16 -29 20 -21 14 -30 21 -26 17 -29 19 -27 18 -30 20 -21 14 -32 21 -27 18 -30 19 -33 21 -3 2 -22 14 -1 1 -34 21 -21 13c-15,9 -29,18 -44,27l-15 9 -37 22 -2 1 -23 14 -1 1 -42 26 -2 1 -24 14 -38 23 -20 12 -38 22 -24 14 -6 3 -43 25 0 0 -25 14 -44 26 -17 10c-18,11 -37,21 -55,32l-24 13 -38 22 -26 15 0 -167c0,-368 235,-683 561,-804 80,89 183,143 294,143 112,0 215,-53 295,-143zm-773 -689l17 0c10,-183 123,-338 281,-407l0 150c0,13 11,25 25,25l26 0c14,0 25,-11 25,-25l0 -48 0 -127 0 -7c0,-40 33,-73 73,-73l76 0c40,0 73,33 73,73l0 8 0 125 0 48c0,13 11,25 25,25l26 0c13,0 25,-11 25,-25l0 -147c155,70 265,224 274,404l17 0c33,0 60,27 60,60 0,33 -27,59 -60,59l-961 0c-33,0 -59,-27 -59,-59 0,-33 27,-60 59,-60zm935 202c-42,287 -230,504 -455,504 -225,0 -413,-217 -455,-504l910 0z"/>
    <g style="clip-path:url(#id0)">
     <g>
      <path id="1" class="fil11" d="M2959 2649l0 908c194,-92 377,-206 543,-338l0 -899c0,-39 -46,-62 -76,-37 -144,115 -294,224 -446,327 -13,9 -21,23 -21,39zm-969 542c-157,81 -308,154 -448,218 -17,8 -27,24 -27,43l0 368c77,6 154,9 232,9 105,0 209,-6 311,-17l0 -579c0,-35 -37,-58 -69,-42zm2127 -1574c-131,159 -234,260 -387,405l-7 7 -10 9 -9 8 -8 7 0 0 -3 3 -5 6 -2 4 -1 2 -2 4 0 1 -1 5 -1 3 0 2 0 4 0 978c216,-202 399,-438 543,-698l0 -698c0,-35 -70,-97 -108,-51zm-1408 1169c-150,93 -300,180 -447,261 -15,8 -24,24 -24,41l0 699c188,-33 370,-84 544,-153l0 -809c0,-37 -41,-59 -72,-40z"/>
      <path class="fil12" d="M4074 1667c-112,131 -209,226 -344,355l-7 7 -10 9 -9 8 -8 7 0 0 -3 3 -5 6 -2 4 -1 2 -2 4 0 1 -1 5 -1 3 0 2 0 4 0 315c162,-224 295,-471 393,-734zm-2085 1524c-157,81 -308,154 -448,218 -17,8 -27,24 -27,43l0 221c187,-21 368,-59 543,-112l0 -328c0,-35 -37,-58 -69,-42zm719 -405c-150,93 -300,180 -447,261 -15,8 -24,24 -24,41l0 413c191,-71 373,-159 544,-264l0 -411c0,-37 -41,-59 -72,-40zm271 -176c-13,9 -21,23 -21,39l0 470c200,-142 382,-308 543,-492l0 -307c0,-39 -46,-62 -76,-37 -144,115 -294,224 -446,327z"/>
      <path class="fil13" d="M1552 1048l-938 1624c-189,327 -389,650 -567,982 -133,249 29,527 310,536 125,4 251,0 376,0l623 0c-25,-60 -48,-121 -69,-182l-824 0c-36,0 -73,3 -109,0 -136,-9 -214,-128 -155,-255 39,-82 93,-161 138,-239l329 -569c165,-285 330,-571 494,-856 76,-371 210,-721 391,-1041z"/>
      <path class="fil14" d="M4224 3240l205 356c57,98 162,226 85,340 -60,87 -188,78 -290,74l0 -770zm58 -265c-98,374 -312,702 -602,941l0 93 -123 0c-103,72 -215,133 -332,182l871 0c92,0 185,4 277,0 304,-13 422,-318 284,-563 -124,-219 -250,-436 -376,-653z"/>
     </g>
    </g>
    <path class="fil15" d="M4374 4190c-92,4 -185,0 -277,0l-3364 0c-125,0 -251,4 -376,0 -281,-9 -443,-287 -310,-536 178,-333 378,-656 567,-982 478,-828 956,-1657 1435,-2485 0,-1 1,-2 1,-3 2,-3 4,-6 5,-9 3,-4 5,-8 8,-12 100,-143 280,-207 445,-130 128,60 186,195 253,310 107,185 213,369 320,554 152,263 304,526 456,789 49,-53 96,-107 143,-161 55,-64 73,-94 126,-161 18,-23 37,-47 55,-70l170 12 59 215c-132,161 -245,278 -405,423l0 0 0 0 0 0 0 0 0 0 0 0 0 0 0 0 0 0 0 0 0 0 0 0 0 0 0 0 0 0 0 0 0 0 0 0 0 0 0 0 0 0 0 0 0 0 0 0 0 0 0 0 0 0 0 0 0 0 0 0 0 0 0 0 0 0 0 0 0 0 0 0 0 0 0 0 0 0 0 0 0 0 0 0 0 0 0 0 0 0 0 0 0 0 0 0 0 0 0 0 0 0 0 0 0 0 0 0 0 0 0 0 0 0 0 0 0 0 0 0 0 0 0 0 0 0 0 0 0 0 0 0 0 0 0 0 0 0 0 0 0 0 0 0 0 0 0 0 0 0 0 0 0 0 0 0 0 0 0 0 0 0 0 0 0 0 0 0 0 0 0 0 0 0 0 0 0 0 0 0 0 0 0 0 0 0 0 0 0 0 0 0 0 0 0 0 0 0 0 0 0 0 -2 2 -2 2 -2 2 -2 2 -2 2 -2 2 -2 2 -2 2 -2 2 -2 2 -2 2 -2 2 -2 2 -2 2 0 0 -2 2 -2 2 -2 2 0 0 -2 2 0 0 -2 2 0 0 -2 2 -2 2 0 0 -2 2 0 0 -2 2 0 0 -2 2 -2 2 -2 2 0 0 -2 2 -2 2 -2 2 0 0 -2 2 0 0 -2 2 0 0 -2 2 -2 2 -2 2 0 0 -2 2 -2 2 0 0 -2 2 0 0 -2 2 -2 2 0 0 -2 2 0 0 -2 2 0 0 -2 2 -2 2 0 0 -2 2 -2 2 0 0 -2 2 0 0 -2 2 0 0 -2 2 -2 2 0 0 -2 2 -2 2 0 0 -2 2 0 0 -2 2 0 0 -2 2 -2 2 0 0 -2 2 -2 2 -2 2 0 0 -2 2 0 0 -2 2 -2 2 0 0 -2 2 0 0 -2 2 -2 2c-15,13 -29,25 -44,37 -173,143 -357,278 -543,403 -59,40 -119,79 -178,116 -182,116 -365,222 -544,320 -60,33 -120,65 -179,96 -193,101 -377,190 -543,266 -480,220 -819,338 -819,338 302,-156 573,-302 819,-441 162,-92 312,-181 453,-267 94,-58 183,-114 269,-170 145,-95 279,-187 403,-278 114,-84 220,-166 319,-248 147,-122 279,-242 402,-365 16,-16 31,-31 46,-47l0 0c-187,-325 -375,-649 -563,-974 -91,-157 -182,-314 -272,-472 -19,-34 -38,-69 -59,-102 -73,-113 -221,-131 -300,-10 -11,18 -21,37 -32,55 -505,875 -1010,1749 -1515,2624 -110,190 -219,379 -329,569 -45,79 -99,157 -138,239 -59,127 19,245 155,255 36,3 73,0 109,0l1051 0 0 -557c0,-18 10,-35 27,-43 140,-64 290,-137 448,-218 31,-16 69,7 69,42l0 775 179 0 0 -921c0,-17 9,-33 24,-41 147,-81 297,-168 447,-261 31,-20 72,3 72,40l0 1183 178 0 0 -1360c0,-16 8,-30 21,-39 152,-103 302,-212 446,-327 31,-25 76,-2 76,37l0 1689 179 0 0 -1710 0 0 0 -211 0 0 0 -1 0 0 0 -1 0 0 0 -1 0 0 0 -1 0 0 0 -1 0 0 0 -1 0 0 0 -1 0 0 0 -1 0 0 0 -1 0 0 0 -1 0 0 0 -1 0 0 0 -1 0 0 0 -1 0 0 0 -1 0 0 0 -1 0 0 0 -1 0 0 0 -1 0 0 0 -1 0 0 0 -1 0 0 0 -1 0 0 0 -1 0 -1 0 0 0 -1 0 0 0 -1 0 0 0 -1 0 0 0 -1 0 0 0 -1 0 0 0 -1 0 0 0 -1 0 0 0 -1 0 0 0 -1 0 -1 0 0 0 -1 0 0 0 -1 0 0 0 -1 0 -1 0 -1 0 0 0 -1 0 0 0 -1 1 -2 0 0 0 0 0 0 0 -1 0 0 0 0 0 0 0 0 0 0 0 0 0 0 0 0 0 0 0 0 0 0 0 0 0 0 0 0 0 0 0 0 0 0 0 0 0 0 0 0 0 0 1 -1 0 0 0 0 0 0 0 0 1 -1 0 0 1 -1 0 0 0 0 0 0 0 0 0 0 1 0 0 0 1 0 0 0 1 0 0 0 1 0 0 0 1 0 0 0 1 0 0 0 1 0 0 0 1 0 0 0 1 0 0 0 1 0 0 0 1 0 0 0 1 0 0 0 1 0 0 0 1 0 0 0 1 0 0 0 1 0 0 0 1 0 0 0 1 0 0 0 1 0 1 0 0 0 1 0 0 0 1 0 0 0 1 0 0 0 1 0 1 0 1 0 0 0 1 0 0 0 1 0 1 0 1 0 1 0 0 0 1 0 1 0 1 0 1 0 0 0 1 0 0 0 1 0 0 0 1 0 1 0 0 0 1 0 0 0 1 0 1 -1 0 0 1 0 0 0 1 0 0 0 1 0 0 0 1 0 0 0 1 0 0 0 1 0 0 0 1 0 0 0 1 0 0 0 1 0 0 0 1 0 0 0 1 -1 0 0 1 0 0 0 1 -1 0 0 1 0 0 0 1 -1 0 0 1 0 0 0 1 -1 0 0 1 0 0 0 1 0 0 0 1 0 0 0 1 0 0 0 1 -1 0 0c139,-128 269,-263 385,-404 17,-20 47,-23 67,-6l25 21c11,9 17,22 17,36l0 1207c146,251 291,501 434,754 138,244 19,549 -284,563zm-150 -181c102,4 230,13 290,-74 78,-114 -28,-241 -85,-340 -68,-119 -137,-237 -205,-356l0 770zm-2847 -1840l99 0c22,0 39,18 39,39l0 55c39,9 75,24 108,45l39 -39c12,-12 31,-15 46,-7 -57,50 -107,106 -150,168 -38,-25 -82,-39 -131,-39 -132,0 -239,107 -239,239 0,122 91,222 208,237 -3,29 -4,59 -4,89l0 135 -14 0c-22,0 -39,-18 -39,-39l0 -55c-39,-9 -75,-24 -108,-45l-39 39c-15,15 -40,15 -56,0l-70 -70c-15,-15 -15,-40 0,-56l39 -39c-20,-33 -35,-69 -45,-108l-55 0c-22,0 -39,-18 -39,-39l0 -98c0,-22 18,-39 39,-39l55 0c9,-39 24,-75 45,-108l-39 -39c-15,-15 -15,-40 0,-56l70 -70c15,-15 40,-15 56,0l39 39c33,-20 69,-35 108,-45l0 -55c0,-22 18,-39 39,-39zm1212 -2c70,26 136,61 196,103l-28 21 -18 14 -29 21 -17 13 -30 22 -18 13 -29 21 -17 13 -30 22 -21 15 -29 21 -21 15 -30 21 -24 16 -29 20 -21 14 -30 21 -26 17 -29 19 -27 18 -30 20 -21 14 -32 21 -27 18 -30 19 -33 21 -3 2 -22 14 -1 1 -34 21 -21 13c-15,9 -29,18 -44,27l-15 9 -37 22 -2 1 -23 14 -1 1 -42 26 -2 1 -24 14 -38 23 -20 12 -38 22 -24 14 -6 3 -43 25 0 0 -25 14 -44 26 -17 10c-18,11 -37,21 -55,32l-24 13 -38 22 -26 15 0 -167c0,-368 235,-683 561,-804 80,89 183,143 294,143 112,0 215,-53 295,-143zm-773 -689l17 0c10,-183 123,-338 281,-407l0 150c0,13 11,25 25,25l26 0c14,0 25,-11 25,-25l0 -48 0 -127 0 -7c0,-40 33,-73 73,-73l76 0c40,0 73,33 73,73l0 8 0 125 0 48c0,13 11,25 25,25l26 0c13,0 25,-11 25,-25l0 -147c155,70 265,224 274,404l17 0c33,0 60,27 60,60 0,33 -27,59 -60,59l-961 0c-33,0 -59,-27 -59,-59 0,-33 27,-60 59,-60zm935 202c-42,287 -230,504 -455,504 -225,0 -413,-217 -455,-504l910 0z"/>
    <g>
     <polygon class="fil16" points="4575,1293 4279,1272 4156,1519 4083,1253 3789,1217 4034,1057 3988,766 4212,945 4466,813 4365,1089 "/>
     <polygon class="fil17" points="4365,1089 4575,1293 4279,1272 4156,1519 4083,1253 3789,1217 4034,1057 3988,766 4212,945 4466,813 "/>
     <g>
      <polygon class="fil18" points="3793,1218 4083,1253 4192,1128 "/>
     </g>
     <g>
      <polygon class="fil19" points="4192,1128 4083,1253 4083,1253 4156,1519 4194,1127 "/>
     </g>
     <g>
      <polygon class="fil20" points="4194,1126 4194,1125 3988,767 3988,766 4034,1057 "/>
     </g>
     <g>
      <polygon class="fil21" points="4194,1125 4212,945 3988,767 4194,1125 "/>
     </g>
     <g>
      <polygon class="fil22" points="4212,945 4194,1125 4466,813 4466,813 "/>
     </g>
     <g>
      <polygon class="fil23" points="4194,1126 4034,1057 3789,1217 3793,1218 4192,1128 "/>
     </g>
     <g>
      <polygon class="fil24" points="4194,1126 4195,1127 4365,1089 4466,813 4194,1125 "/>
     </g>
     <g>
      <polygon class="fil25" points="4194,1127 4156,1519 4279,1273 4195,1127 4195,1127 "/>
     </g>
     <g>
      <polygon class="fil26" points="4279,1273 4279,1272 4575,1293 4195,1127 "/>
     </g>
     <g>
      <polygon class="fil27" points="4195,1127 4575,1293 4365,1089 4365,1089 4195,1127 "/>
     </g>
    </g>
   </g>
   <path class="fil28" d="M5161 4097l-10 89 -226 0 0 -7 8 0c7,0 13,-1 18,-4 3,-2 6,-5 8,-9 1,-3 2,-11 2,-24l0 -167c0,-13 -1,-21 -2,-24 -1,-3 -4,-6 -8,-9 -4,-2 -10,-4 -17,-4l-8 0 0 -7 136 0 0 7 -11 0c-7,0 -13,1 -18,4 -3,2 -6,5 -8,9 -1,3 -2,11 -2,24l0 162c0,13 1,21 2,25 2,4 4,6 9,8 3,1 11,2 23,2l21 0c13,0 25,-2 34,-7 9,-5 17,-12 23,-23 7,-10 13,-25 19,-45l8 0z"/>
   <path id="1" class="fil28" d="M5330 4114l-90 0 -11 25c-4,8 -5,15 -5,20 0,7 3,12 9,16 3,2 12,4 25,5l0 7 -84 0 0 -7c9,-1 17,-5 22,-11 6,-6 13,-19 22,-38l91 -203 4 0 92 208c9,20 16,32 22,37 4,4 10,6 18,7l0 7 -123 0 0 -7 5 0c10,0 17,-1 21,-4 3,-2 4,-5 4,-9 0,-2 0,-5 -1,-7 0,-1 -2,-6 -6,-14l-13 -32zm-6 -14l-38 -88 -39 88 77 0z"/>
   <path id="12" class="fil28" d="M5614 4052c24,6 41,12 51,20 14,11 21,26 21,44 0,19 -8,35 -23,47 -19,15 -46,23 -82,23l-129 0 0 -7c12,0 20,-1 24,-3 4,-2 7,-5 9,-9 2,-4 3,-12 3,-26l0 -165c0,-14 -1,-22 -3,-26 -2,-4 -5,-6 -9,-9 -4,-2 -12,-3 -24,-3l0 -7 122 0c29,0 50,3 62,8 12,5 22,13 29,23 7,10 10,21 10,33 0,12 -4,23 -13,33 -9,10 -24,17 -47,23zm-68 -5c18,0 31,-2 39,-6 8,-4 15,-10 19,-17 4,-7 7,-17 7,-28 0,-11 -2,-20 -7,-28 -4,-7 -11,-13 -19,-16 -8,-4 -21,-6 -40,-5l0 100zm0 15l0 81 0 9c0,7 2,12 5,15 3,3 8,5 15,5 10,0 19,-2 28,-7 8,-4 15,-11 19,-19 5,-8 7,-18 7,-28 0,-12 -3,-23 -8,-32 -5,-9 -13,-16 -23,-20 -10,-4 -24,-6 -43,-5z"/>
   <path id="123" class="fil28" d="M5842 3929c40,-2 73,10 99,35 25,25 38,57 38,94 0,32 -9,61 -28,85 -25,32 -60,49 -106,49 -46,0 -81,-15 -106,-46 -20,-24 -30,-54 -30,-87 0,-38 13,-69 39,-94 26,-25 57,-37 95,-35zm2 12c-23,0 -41,12 -53,36 -10,19 -15,47 -15,84 0,43 8,75 23,96 11,15 26,22 45,22 13,0 24,-3 32,-9 11,-8 20,-21 26,-38 6,-18 9,-40 9,-69 0,-34 -3,-59 -9,-75 -6,-17 -14,-28 -24,-35 -10,-7 -21,-10 -33,-10z"/>
   <path id="1234" class="fil28" d="M5997 3932l131 0 0 7 -7 0c-10,0 -17,1 -20,3 -4,2 -6,5 -8,8 -2,4 -2,13 -2,27l0 124c0,23 2,38 5,45 3,7 9,13 17,18 8,5 18,7 30,7 14,0 25,-3 35,-9 10,-6 17,-15 22,-26 5,-11 7,-30 7,-57l0 -104c0,-11 -1,-20 -4,-24 -2,-5 -5,-8 -9,-10 -6,-3 -14,-4 -24,-4l0 -7 88 0 0 7 -5 0c-7,0 -13,1 -18,4 -5,3 -8,7 -10,13 -2,4 -2,11 -2,22l0 97c0,30 -2,51 -6,65 -4,13 -14,25 -29,37 -15,11 -36,17 -62,17 -22,0 -39,-3 -51,-9 -16,-8 -28,-18 -35,-31 -7,-13 -10,-29 -10,-50l0 -124c0,-15 -1,-24 -2,-27 -2,-4 -4,-6 -8,-9 -4,-2 -11,-3 -22,-3l0 -7z"/>
   <path id="12345" class="fil28" d="M6363 4070l0 71c0,14 1,22 2,26 2,4 5,6 9,9 4,2 12,3 24,3l0 7 -130 0 0 -7c12,0 20,-1 24,-3 4,-2 7,-5 9,-9 2,-4 2,-12 2,-26l0 -165c0,-14 -1,-22 -2,-26 -2,-4 -5,-6 -9,-9 -4,-2 -12,-3 -24,-3l0 -7 118 0c31,0 53,2 67,6 14,4 26,12 35,24 9,11 13,25 13,40 0,19 -7,34 -20,47 -9,8 -21,14 -36,17l61 86c8,11 14,18 17,21 5,4 11,6 18,6l0 7 -80 0 -82 -116 -17 0zm0 -125l0 111 11 0c17,0 30,-2 39,-5 9,-3 15,-9 20,-17 5,-8 7,-19 7,-32 0,-19 -5,-34 -14,-43 -9,-9 -24,-14 -44,-14l-20 0z"/>
   <path id="123456" class="fil28" d="M6713 3926l2 85 -8 0c-4,-21 -12,-38 -27,-51 -14,-13 -29,-19 -46,-19 -13,0 -23,3 -30,10 -7,7 -11,15 -11,24 0,6 1,11 4,15 4,6 9,12 17,17 6,4 19,11 41,22 30,15 50,28 60,41 10,13 15,28 15,45 0,21 -8,40 -25,55 -17,15 -38,23 -63,23 -8,0 -16,-1 -23,-2 -7,-2 -16,-5 -27,-9 -6,-2 -11,-4 -15,-4 -3,0 -7,1 -10,4 -4,2 -7,6 -9,11l-7 0 0 -96 7 0c5,27 16,48 32,62 16,14 33,21 51,21 14,0 25,-4 33,-11 8,-8 12,-16 12,-27 0,-6 -2,-12 -5,-17 -3,-6 -8,-11 -15,-16 -7,-5 -18,-12 -34,-20 -23,-11 -40,-21 -50,-29 -10,-8 -18,-17 -23,-27 -5,-10 -8,-21 -8,-33 0,-20 7,-37 22,-52 15,-14 34,-21 56,-21 8,0 16,1 24,3 6,2 13,4 21,8 8,4 14,6 18,6 3,0 6,-1 8,-3 2,-2 4,-7 5,-14l6 0z"/>
   <path id="1234567" class="fil28" d="M7094 3926l0 88 -7 0c-5,-23 -16,-41 -31,-53 -15,-12 -32,-18 -51,-18 -16,0 -30,5 -44,14 -13,9 -23,21 -29,36 -8,19 -12,40 -12,63 0,23 3,43 9,62 6,19 15,33 27,42 12,10 28,14 48,14 16,0 31,-3 44,-10 13,-7 27,-19 42,-36l0 22c-14,15 -29,26 -45,32 -15,7 -33,10 -54,10 -27,0 -51,-5 -72,-16 -21,-11 -37,-26 -49,-47 -11,-20 -17,-42 -17,-65 0,-24 6,-47 19,-69 13,-22 30,-39 51,-51 22,-12 44,-18 69,-18 18,0 37,4 57,12 12,4 19,7 22,7 4,0 7,-1 10,-4 3,-3 5,-8 6,-14l7 0z"/>
   <path id="12345678" class="fil28" d="M7215 3947l0 103 5 0c16,0 28,-5 35,-15 7,-10 12,-25 14,-45l7 0 0 133 -7 0c-2,-15 -5,-26 -9,-36 -5,-9 -10,-15 -17,-19 -6,-3 -16,-5 -28,-5l0 72c0,14 1,23 2,26 1,3 3,6 7,8 3,2 8,3 16,3l15 0c24,0 43,-5 57,-17 14,-11 25,-28 31,-50l7 0 -11 81 -220 0 0 -7 8 0c7,0 13,-1 18,-4 3,-2 6,-5 7,-9 1,-3 2,-11 2,-24l0 -167c0,-12 0,-19 -1,-21 -1,-4 -4,-8 -7,-10 -5,-4 -11,-5 -20,-5l-8 0 0 -7 213 0 0 75 -7 0c-4,-18 -9,-32 -15,-40 -7,-8 -16,-14 -28,-18 -7,-2 -20,-3 -39,-3l-26 0z"/>
   <path id="123456789" class="fil28" d="M7464 4070l0 71c0,14 1,22 2,26 2,4 5,6 9,9 4,2 12,3 24,3l0 7 -130 0 0 -7c12,0 20,-1 24,-3 4,-2 7,-5 9,-9 2,-4 2,-12 2,-26l0 -165c0,-14 -1,-22 -2,-26 -2,-4 -5,-6 -9,-9 -4,-2 -12,-3 -24,-3l0 -7 118 0c31,0 53,2 67,6 14,4 26,12 35,24 9,11 13,25 13,40 0,19 -7,34 -20,47 -9,8 -21,14 -36,17l61 86c8,11 14,18 17,21 5,4 11,6 18,6l0 7 -80 0 -82 -116 -17 0zm0 -125l0 111 11 0c17,0 30,-2 39,-5 9,-3 15,-9 20,-17 5,-8 7,-19 7,-32 0,-19 -5,-34 -14,-43 -9,-9 -24,-14 -44,-14l-20 0z"/>
   <path id="12345678910" class="fil28" d="M7863 3932l0 69 -7 0c-4,-16 -8,-27 -13,-34 -5,-7 -12,-12 -20,-17 -5,-2 -13,-3 -25,-3l-19 0 0 196c0,13 1,21 2,24 1,3 4,6 8,9 4,2 10,4 17,4l8 0 0 7 -133 0 0 -7 8 0c7,0 13,-1 18,-4 3,-2 6,-5 8,-9 1,-3 2,-11 2,-24l0 -196 -18 0c-17,0 -30,4 -37,11 -11,10 -18,25 -21,43l-7 0 0 -69 228 0z"/>
   <path id="1234567891011" class="fil28" d="M8013 4179l0 7 -133 0 0 -7 8 0c7,0 13,-1 18,-4 3,-2 6,-5 7,-9 1,-3 2,-11 2,-24l0 -167c0,-13 -1,-21 -2,-24 -1,-3 -4,-6 -8,-9 -4,-2 -10,-4 -17,-4l-8 0 0 -7 133 0 0 7 -8 0c-7,0 -13,1 -18,4 -3,2 -6,5 -8,9 -1,3 -2,11 -2,24l0 167c0,13 1,21 2,24 1,3 4,6 8,9 4,2 10,4 17,4l8 0z"/>
   <path id="123456789101112" class="fil28" d="M8122 3947l0 104 7 0c11,0 20,-2 28,-5 7,-3 13,-9 18,-17 5,-8 8,-19 10,-32l7 0 0 128 -7 0c-2,-24 -9,-40 -19,-48 -11,-8 -23,-12 -36,-12l-7 0 0 78c0,13 1,21 2,24 1,3 4,6 8,9 4,2 10,4 17,4l8 0 0 7 -133 0 0 -7 8 0c7,0 13,-1 18,-4 3,-2 6,-5 7,-9 1,-3 2,-11 2,-24l0 -167c0,-13 -1,-21 -2,-24 -1,-3 -4,-6 -8,-9 -4,-2 -10,-4 -17,-4l-8 0 0 -7 214 0 0 73 -8 0c-2,-17 -6,-30 -13,-38 -7,-8 -18,-14 -31,-17 -7,-2 -21,-3 -42,-3l-24 0z"/>
   <path id="12345678910111213" class="fil28" d="M8387 4179l0 7 -133 0 0 -7 8 0c7,0 13,-1 18,-4 3,-2 6,-5 7,-9 1,-3 2,-11 2,-24l0 -167c0,-13 -1,-21 -2,-24 -1,-3 -4,-6 -8,-9 -4,-2 -10,-4 -17,-4l-8 0 0 -7 133 0 0 7 -8 0c-7,0 -13,1 -18,4 -3,2 -6,5 -8,9 -1,3 -2,11 -2,24l0 167c0,13 1,21 2,24 1,3 4,6 8,9 4,2 10,4 17,4l8 0z"/>
   <path id="1234567891011121314" class="fil28" d="M8648 3926l0 88 -7 0c-5,-23 -16,-41 -31,-53 -15,-12 -32,-18 -51,-18 -16,0 -30,5 -44,14 -13,9 -23,21 -29,36 -8,19 -12,40 -12,63 0,23 3,43 9,62 6,19 15,33 27,42 12,10 28,14 48,14 16,0 31,-3 44,-10 13,-7 27,-19 42,-36l0 22c-14,15 -29,26 -45,32 -15,7 -33,10 -54,10 -27,0 -51,-5 -72,-16 -21,-11 -37,-26 -49,-47 -11,-20 -17,-42 -17,-65 0,-24 6,-47 19,-69 13,-22 30,-39 51,-51 22,-12 44,-18 69,-18 18,0 37,4 57,12 12,4 19,7 22,7 4,0 7,-1 10,-4 3,-3 5,-8 6,-14l7 0z"/>
   <path id="123456789101112131415" class="fil28" d="M8824 4114l-90 0 -11 25c-4,8 -5,15 -5,20 0,7 3,12 9,16 3,2 12,4 25,5l0 7 -84 0 0 -7c9,-1 17,-5 22,-11 6,-6 13,-19 22,-38l91 -203 4 0 92 208c9,20 16,32 22,37 4,4 10,6 18,7l0 7 -123 0 0 -7 5 0c10,0 17,-1 21,-4 3,-2 4,-5 4,-9 0,-2 0,-5 -1,-7 0,-1 -2,-6 -6,-14l-13 -32zm-6 -14l-38 -88 -39 88 77 0z"/>
   <path id="12345678910111213141516" class="fil28" d="M9150 3932l0 69 -7 0c-4,-16 -8,-27 -13,-34 -5,-7 -12,-12 -20,-17 -5,-2 -13,-3 -25,-3l-19 0 0 196c0,13 1,21 2,24 1,3 4,6 8,9 4,2 10,4 17,4l8 0 0 7 -133 0 0 -7 8 0c7,0 13,-1 18,-4 3,-2 6,-5 8,-9 1,-3 2,-11 2,-24l0 -196 -18 0c-17,0 -30,4 -37,11 -11,10 -18,25 -21,43l-7 0 0 -69 228 0z"/>
   <path id="1234567891011121314151617" class="fil28" d="M9300 4179l0 7 -133 0 0 -7 8 0c7,0 13,-1 18,-4 3,-2 6,-5 7,-9 1,-3 2,-11 2,-24l0 -167c0,-13 -1,-21 -2,-24 -1,-3 -4,-6 -8,-9 -4,-2 -10,-4 -17,-4l-8 0 0 -7 133 0 0 7 -8 0c-7,0 -13,1 -18,4 -3,2 -6,5 -8,9 -1,3 -2,11 -2,24l0 167c0,13 1,21 2,24 1,3 4,6 8,9 4,2 10,4 17,4l8 0z"/>
   <path id="123456789101112131415161718" class="fil28" d="M9452 3929c40,-2 73,10 99,35 25,25 38,57 38,94 0,32 -9,61 -28,85 -25,32 -60,49 -106,49 -46,0 -81,-15 -106,-46 -20,-24 -30,-54 -30,-87 0,-38 13,-69 39,-94 26,-25 57,-37 95,-35zm2 12c-23,0 -41,12 -53,36 -10,19 -15,47 -15,84 0,43 8,75 23,96 11,15 26,22 45,22 13,0 24,-3 32,-9 11,-8 20,-21 26,-38 6,-18 9,-40 9,-69 0,-34 -3,-59 -9,-75 -6,-17 -14,-28 -24,-35 -10,-7 -21,-10 -33,-10z"/>
   <path id="12345678910111213141516171819" class="fil28" d="M9694 3932l125 158 0 -109c0,-15 -2,-26 -7,-31 -6,-7 -16,-11 -30,-10l0 -7 84 0 0 7c-11,1 -18,3 -22,5 -4,2 -7,6 -9,11 -2,5 -3,13 -3,25l0 212 -6 0 -172 -212 0 162c0,15 3,24 10,30 7,5 14,8 23,8l6 0 0 7 -90 0 0 -7c14,0 24,-3 29,-9 5,-6 8,-15 8,-29l0 -179 -5 -7c-5,-7 -10,-11 -14,-13 -4,-2 -10,-3 -18,-4l0 -7 90 0z"/>
   <path id="1234567891011121314151617181920" class="fil28" d="M10070 4071l0 70c0,14 1,22 3,26 2,4 5,6 9,9 4,2 12,3 24,3l0 7 -129 0 0 -7c12,0 20,-1 24,-3 4,-2 7,-5 9,-9 2,-4 2,-12 2,-26l0 -165c0,-14 -1,-22 -2,-26 -2,-4 -5,-6 -9,-9 -4,-2 -12,-3 -24,-3l0 -7 111 0c36,0 63,7 78,20 16,13 24,29 24,49 0,16 -5,31 -15,42 -10,12 -24,20 -42,24 -12,3 -33,4 -61,4zm0 -124l0 110c4,0 7,0 9,0 15,0 27,-5 35,-14 8,-9 12,-23 12,-42 0,-19 -4,-33 -12,-41 -8,-9 -21,-13 -37,-13l-8 0z"/>
   <path id="123456789101112131415161718192021" class="fil28" d="M10298 4070l0 71c0,14 1,22 2,26 2,4 5,6 9,9 4,2 12,3 24,3l0 7 -130 0 0 -7c12,0 20,-1 24,-3 4,-2 7,-5 9,-9 2,-4 2,-12 2,-26l0 -165c0,-14 -1,-22 -2,-26 -2,-4 -5,-6 -9,-9 -4,-2 -12,-3 -24,-3l0 -7 118 0c31,0 53,2 67,6 14,4 26,12 35,24 9,11 13,25 13,40 0,19 -7,34 -20,47 -9,8 -21,14 -36,17l61 86c8,11 14,18 17,21 5,4 11,6 18,6l0 7 -80 0 -82 -116 -17 0zm0 -125l0 111 11 0c17,0 30,-2 39,-5 9,-3 15,-9 20,-17 5,-8 7,-19 7,-32 0,-19 -5,-34 -14,-43 -9,-9 -24,-14 -44,-14l-20 0z"/>
   <path id="12345678910111213141516171819202122" class="fil28" d="M10617 3929c40,-2 73,10 99,35 25,25 38,57 38,94 0,32 -9,61 -28,85 -25,32 -60,49 -106,49 -46,0 -81,-15 -106,-46 -20,-24 -30,-54 -30,-87 0,-38 13,-69 39,-94 26,-25 57,-37 95,-35zm2 12c-23,0 -41,12 -53,36 -10,19 -15,47 -15,84 0,43 8,75 23,96 11,15 26,22 45,22 13,0 24,-3 32,-9 11,-8 20,-21 26,-38 6,-18 9,-40 9,-69 0,-34 -3,-59 -9,-75 -6,-17 -14,-28 -24,-35 -10,-7 -21,-10 -33,-10z"/>
   <path id="1234567891011121314151617181920212223" class="fil28" d="M11028 3926l0 90 -7 0c-8,-24 -21,-43 -38,-56 -17,-13 -35,-19 -55,-19 -19,0 -35,5 -47,16 -13,11 -22,26 -27,45 -5,19 -8,39 -8,59 0,24 3,46 9,64 6,18 15,32 28,40 13,9 28,13 46,13 6,0 12,-1 19,-2 6,-1 13,-3 20,-6l0 -53c0,-10 -1,-16 -2,-19 -1,-3 -4,-6 -9,-8 -4,-2 -10,-4 -16,-4l-7 0 0 -7 123 0 0 7c-9,1 -16,2 -20,4 -4,2 -7,5 -9,10 -1,2 -2,8 -2,17l0 53c-16,7 -33,13 -51,16 -18,4 -36,6 -55,6 -24,0 -44,-3 -60,-10 -16,-7 -30,-15 -42,-26 -12,-11 -22,-23 -29,-36 -9,-17 -13,-37 -13,-58 0,-38 13,-70 40,-97 27,-26 61,-40 101,-40 13,0 24,1 34,3 5,1 14,4 27,9 12,5 20,7 22,7 4,0 7,-1 10,-4 3,-3 6,-7 8,-15l7 0z"/>
   <path id="123456789101112131415161718192021222324" class="fil28" d="M11159 4070l0 71c0,14 1,22 2,26 2,4 5,6 9,9 4,2 12,3 24,3l0 7 -130 0 0 -7c12,0 20,-1 24,-3 4,-2 7,-5 9,-9 2,-4 2,-12 2,-26l0 -165c0,-14 -1,-22 -2,-26 -2,-4 -5,-6 -9,-9 -4,-2 -12,-3 -24,-3l0 -7 118 0c31,0 53,2 67,6 14,4 26,12 35,24 9,11 13,25 13,40 0,19 -7,34 -20,47 -9,8 -21,14 -36,17l61 86c8,11 14,18 17,21 5,4 11,6 18,6l0 7 -80 0 -82 -116 -17 0zm0 -125l0 111 11 0c17,0 30,-2 39,-5 9,-3 15,-9 20,-17 5,-8 7,-19 7,-32 0,-19 -5,-34 -14,-43 -9,-9 -24,-14 -44,-14l-20 0z"/>
   <path id="12345678910111213141516171819202122232425" class="fil28" d="M11489 4114l-90 0 -11 25c-4,8 -5,15 -5,20 0,7 3,12 9,16 3,2 12,4 25,5l0 7 -84 0 0 -7c9,-1 17,-5 22,-11 6,-6 13,-19 22,-38l91 -203 4 0 92 208c9,20 16,32 22,37 4,4 10,6 18,7l0 7 -123 0 0 -7 5 0c10,0 17,-1 21,-4 3,-2 4,-5 4,-9 0,-2 0,-5 -1,-7 0,-1 -2,-6 -6,-14l-13 -32zm-6 -14l-38 -88 -39 88 77 0z"/>
   <path id="1234567891011121314151617181920212223242526" class="fil28" d="M11785 4100l69 -168 103 0 0 7 -8 0c-7,0 -13,1 -18,4 -3,2 -6,5 -8,9 -1,3 -2,11 -2,23l0 168c0,13 1,21 2,24 1,3 4,6 8,9 4,2 10,4 17,4l8 0 0 7 -133 0 0 -7 8 0c8,0 13,-1 18,-4 3,-2 6,-5 7,-9 1,-3 2,-11 2,-24l0 -188 -97 232 -5 0 -99 -230 0 179c0,12 0,20 1,23 2,6 5,11 11,15 5,4 14,6 26,6l0 7 -87 0 0 -7 3 0c6,0 11,-1 16,-3 5,-2 9,-5 11,-8 2,-3 4,-8 6,-14 0,-1 0,-8 0,-19l0 -161c0,-13 -1,-21 -2,-24 -1,-3 -4,-6 -8,-8 -4,-2 -10,-4 -17,-4l-8 0 0 -7 104 0 71 168z"/>
   <path class="fil29" d="M7288 2637l-98 915 -2314 0 0 -71 87 0c75,0 136,-14 182,-41 33,-18 59,-49 77,-92 14,-30 21,-111 21,-242l0 -1714c0,-133 -7,-216 -21,-250 -14,-33 -43,-62 -86,-87 -43,-25 -101,-37 -174,-37l-87 0 0 -71 1390 0 0 71 -113 0c-76,0 -136,13 -183,40 -33,18 -59,49 -79,92 -14,31 -21,111 -21,242l0 1660c0,133 8,218 23,254 16,37 45,64 91,82 32,12 110,17 232,17l217 0c138,0 254,-24 346,-73 92,-49 172,-125 239,-231 68,-105 131,-260 192,-465l79 0z"/>
   <path id="1" class="fil29" d="M9778 888l0 902 -75 0c-56,-235 -161,-416 -315,-542 -153,-125 -328,-188 -523,-188 -163,0 -312,47 -447,140 -136,94 -235,216 -298,367 -81,193 -121,409 -121,645 0,233 30,445 89,637 59,192 151,336 277,434 125,98 288,147 488,147 164,0 314,-35 451,-108 136,-71 280,-195 432,-371l0 225c-146,152 -298,263 -457,331 -159,69 -343,103 -555,103 -277,0 -525,-56 -740,-167 -216,-111 -382,-272 -500,-480 -117,-209 -176,-432 -176,-667 0,-249 65,-484 195,-707 130,-223 305,-396 526,-519 221,-123 456,-184 704,-184 183,0 376,39 580,119 118,46 193,70 225,70 41,0 76,-15 106,-45 30,-30 50,-78 59,-143l75 0z"/>
   <path id="12" class="fil29" d="M10778 2372l0 723c0,141 9,230 26,266 17,37 48,66 92,88 45,22 125,33 243,33l0 71 -1324 0 0 -71c121,0 202,-11 245,-34 43,-22 73,-51 91,-87 17,-36 26,-124 26,-265l0 -1691c0,-141 -9,-230 -26,-266 -18,-37 -48,-66 -92,-87 -43,-22 -125,-33 -244,-33l0 -71 1136 0c374,0 642,67 805,200 163,133 244,300 244,500 0,169 -52,314 -157,434 -105,120 -250,202 -434,246 -124,31 -335,46 -630,46zm0 -1276l0 1126c43,3 74,4 96,4 156,0 276,-47 361,-140 85,-92 127,-237 127,-432 0,-193 -43,-334 -127,-424 -85,-90 -211,-134 -378,-134l-79 0z"/>
   <g>
    <g>
     <path class="fil30" style="mask:url(#id1)" d="M10118 1011c39,25 71,57 91,100 32,68 32,219 32,294l0 1691c0,74 0,226 -32,293 -20,43 -53,75 -91,100l718 0c-38,-25 -69,-58 -89,-100 -32,-68 -32,-218 -32,-293l0 -787 64 0c125,0 250,-2 375,-11 79,-6 164,-14 240,-33 153,-37 296,-105 401,-226 98,-112 142,-243 142,-392 0,-186 -77,-333 -220,-450 -193,-158 -525,-186 -764,-186l-833 0zm596 22l143 0c157,0 314,37 425,155 116,123 145,305 145,468 0,165 -29,349 -144,475 -107,117 -252,161 -408,161 -33,0 -67,-2 -100,-4l-60 -4 0 -1251z"/>
    </g>
    <g>
     <path class="fil30" style="mask:url(#id3)" d="M9714 1047c-7,10 -15,20 -24,29 -41,41 -93,64 -152,64 -63,0 -189,-51 -248,-74 -177,-69 -366,-114 -557,-114 -240,0 -464,60 -673,176 -213,118 -379,285 -502,495 -122,209 -187,433 -187,675 0,226 57,438 168,636 112,199 270,350 473,454 221,114 464,160 711,160 180,0 363,-26 529,-98 158,-68 297,-176 418,-298l0 -34c-101,103 -214,198 -338,263 -150,79 -311,115 -480,115 -190,0 -376,-42 -527,-160 -151,-118 -243,-285 -299,-466 -65,-212 -91,-434 -91,-656 0,-230 38,-457 126,-670 68,-163 175,-295 321,-396 145,-100 307,-152 484,-152 211,0 400,69 563,203 134,110 226,251 286,408l0 -560z"/>
    </g>
    <g>
     <path class="fil30" style="mask:url(#id5)" d="M7198 2876c-35,92 -76,183 -126,261 -67,104 -152,195 -263,253 -115,60 -248,80 -376,80l-217 0c-65,0 -194,2 -255,-21 -57,-22 -103,-60 -127,-117 -28,-67 -28,-207 -28,-279l0 -1660c0,-67 -1,-207 27,-268 21,-46 50,-86 92,-114l-738 0c41,27 76,61 95,107 27,64 26,205 26,275l0 1714c0,67 0,206 -26,268 -20,46 -49,86 -91,114l1942 0 65 -613z"/>
    </g>
   </g>
  </g>
 </g>
</svg>
